<mxfile host="app.diagrams.net" agent="Mozilla/5.0 (Windows NT 10.0; Win64; x64) AppleWebKit/537.36 (KHTML, like Gecko) Chrome/141.0.0.0 Safari/537.36" version="28.2.5">
  <diagram name="Page-1" id="Ita5AIO9qgodr8PFyWgR">
    <mxGraphModel dx="1042" dy="561" grid="1" gridSize="10" guides="1" tooltips="1" connect="1" arrows="1" fold="1" page="1" pageScale="1" pageWidth="850" pageHeight="1100" math="0" shadow="0">
      <root>
        <mxCell id="0" />
        <mxCell id="1" parent="0" />
        <mxCell id="mysU1bcgmzjpTtudAfIv-17" value="" style="group" parent="1" vertex="1" connectable="0">
          <mxGeometry x="460" y="410" width="140" height="90" as="geometry" />
        </mxCell>
        <mxCell id="mysU1bcgmzjpTtudAfIv-11" value="&lt;b&gt;&lt;font style=&quot;font-size: 14px;&quot;&gt;crm_cust_info&lt;/font&gt;&lt;/b&gt;" style="swimlane;fontStyle=0;childLayout=stackLayout;horizontal=1;startSize=26;fillColor=#d5e8d4;horizontalStack=0;resizeParent=1;resizeParentMax=0;resizeLast=0;collapsible=1;marginBottom=0;html=1;rounded=0;strokeColor=#333333;swimlaneLine=1;" parent="mysU1bcgmzjpTtudAfIv-17" vertex="1">
          <mxGeometry y="30" width="140" height="94" as="geometry">
            <mxRectangle y="30" width="140" height="30" as="alternateBounds" />
          </mxGeometry>
        </mxCell>
        <mxCell id="mysU1bcgmzjpTtudAfIv-12" value="&lt;span style=&quot;font-size: 16px; background-color: transparent; color: light-dark(rgb(0, 0, 0), rgb(255, 255, 255));&quot;&gt;cst_id&lt;/span&gt;" style="text;strokeColor=none;fillColor=none;align=left;verticalAlign=top;spacingLeft=4;spacingRight=4;overflow=hidden;rotatable=0;points=[[0,0.5],[1,0.5]];portConstraint=eastwest;whiteSpace=wrap;html=1;" parent="mysU1bcgmzjpTtudAfIv-11" vertex="1">
          <mxGeometry y="26" width="140" height="34" as="geometry" />
        </mxCell>
        <mxCell id="mysU1bcgmzjpTtudAfIv-35" value="&lt;span style=&quot;font-size: 16px;&quot;&gt;cst_key&lt;/span&gt;" style="text;strokeColor=none;fillColor=none;align=left;verticalAlign=top;spacingLeft=4;spacingRight=4;overflow=hidden;rotatable=0;points=[[0,0.5],[1,0.5]];portConstraint=eastwest;whiteSpace=wrap;html=1;" parent="mysU1bcgmzjpTtudAfIv-11" vertex="1">
          <mxGeometry y="60" width="140" height="34" as="geometry" />
        </mxCell>
        <mxCell id="mysU1bcgmzjpTtudAfIv-16" value="&lt;b&gt;Customer Information&lt;/b&gt;" style="text;html=1;align=center;verticalAlign=middle;whiteSpace=wrap;rounded=1;strokeColor=none;dashed=1;dashPattern=1 2;fillColor=none;" parent="mysU1bcgmzjpTtudAfIv-17" vertex="1">
          <mxGeometry width="140" height="30" as="geometry" />
        </mxCell>
        <mxCell id="mysU1bcgmzjpTtudAfIv-18" value="" style="group" parent="1" vertex="1" connectable="0">
          <mxGeometry x="460" y="720" width="140" height="110" as="geometry" />
        </mxCell>
        <mxCell id="mysU1bcgmzjpTtudAfIv-19" value="&lt;span style=&quot;font-size: 14px;&quot;&gt;&lt;b&gt;crm_prd_info&lt;/b&gt;&lt;/span&gt;" style="swimlane;fontStyle=0;childLayout=stackLayout;horizontal=1;startSize=26;fillColor=#d5e8d4;horizontalStack=0;resizeParent=1;resizeParentMax=0;resizeLast=0;collapsible=1;marginBottom=0;html=1;rounded=0;strokeColor=#333333;" parent="mysU1bcgmzjpTtudAfIv-18" vertex="1">
          <mxGeometry y="36.66666666666667" width="140" height="60" as="geometry">
            <mxRectangle y="30" width="140" height="30" as="alternateBounds" />
          </mxGeometry>
        </mxCell>
        <mxCell id="mysU1bcgmzjpTtudAfIv-20" value="&lt;span style=&quot;font-size: 16px;&quot;&gt;prd_key&lt;/span&gt;" style="text;strokeColor=none;fillColor=none;align=left;verticalAlign=top;spacingLeft=4;spacingRight=4;overflow=hidden;rotatable=0;points=[[0,0.5],[1,0.5]];portConstraint=eastwest;whiteSpace=wrap;html=1;" parent="mysU1bcgmzjpTtudAfIv-19" vertex="1">
          <mxGeometry y="26" width="140" height="34" as="geometry" />
        </mxCell>
        <mxCell id="mysU1bcgmzjpTtudAfIv-21" value="&lt;b&gt;History &amp;amp; Current Product Information&lt;/b&gt;" style="text;html=1;align=center;verticalAlign=middle;whiteSpace=wrap;rounded=1;strokeColor=none;dashed=1;dashPattern=1 2;fillColor=none;" parent="mysU1bcgmzjpTtudAfIv-18" vertex="1">
          <mxGeometry width="140" height="36.66666666666667" as="geometry" />
        </mxCell>
        <mxCell id="mysU1bcgmzjpTtudAfIv-32" value="" style="group" parent="1" vertex="1" connectable="0">
          <mxGeometry x="230" y="540" width="140" height="150" as="geometry" />
        </mxCell>
        <mxCell id="mysU1bcgmzjpTtudAfIv-27" value="&lt;b&gt;&lt;font style=&quot;font-size: 14px;&quot;&gt;crm_sales_details&lt;/font&gt;&lt;/b&gt;" style="swimlane;fontStyle=0;childLayout=stackLayout;horizontal=1;startSize=26;fillColor=#d5e8d4;horizontalStack=0;resizeParent=1;resizeParentMax=0;resizeLast=0;collapsible=1;marginBottom=0;html=1;rounded=0;strokeColor=#333333;swimlaneLine=0;" parent="mysU1bcgmzjpTtudAfIv-32" vertex="1">
          <mxGeometry y="40" width="140" height="100" as="geometry" />
        </mxCell>
        <mxCell id="mysU1bcgmzjpTtudAfIv-28" value="&lt;font style=&quot;font-size: 16px;&quot;&gt;cst_id&lt;/font&gt;" style="text;strokeColor=default;fillColor=none;align=left;verticalAlign=top;spacingLeft=4;spacingRight=4;overflow=hidden;rotatable=0;points=[[0,0.5],[1,0.5]];portConstraint=eastwest;whiteSpace=wrap;html=1;rounded=0;" parent="mysU1bcgmzjpTtudAfIv-27" vertex="1">
          <mxGeometry y="26" width="140" height="34" as="geometry" />
        </mxCell>
        <mxCell id="mysU1bcgmzjpTtudAfIv-29" value="&lt;font style=&quot;font-size: 16px;&quot;&gt;prd_key&lt;/font&gt;" style="text;strokeColor=default;fillColor=none;align=left;verticalAlign=top;spacingLeft=4;spacingRight=4;overflow=hidden;rotatable=0;points=[[0,0.5],[1,0.5]];portConstraint=eastwest;whiteSpace=wrap;html=1;rounded=0;" parent="mysU1bcgmzjpTtudAfIv-27" vertex="1">
          <mxGeometry y="60" width="140" height="40" as="geometry" />
        </mxCell>
        <mxCell id="mysU1bcgmzjpTtudAfIv-31" value="&lt;b&gt;Transactional records about sales &amp;amp; orders&lt;/b&gt;" style="text;html=1;align=center;verticalAlign=middle;whiteSpace=wrap;rounded=1;" parent="mysU1bcgmzjpTtudAfIv-32" vertex="1">
          <mxGeometry width="140" height="40" as="geometry" />
        </mxCell>
        <mxCell id="mysU1bcgmzjpTtudAfIv-33" style="edgeStyle=orthogonalEdgeStyle;rounded=0;orthogonalLoop=1;jettySize=auto;html=1;exitX=1;exitY=0.5;exitDx=0;exitDy=0;entryX=0;entryY=0.5;entryDx=0;entryDy=0;" parent="1" source="mysU1bcgmzjpTtudAfIv-28" target="mysU1bcgmzjpTtudAfIv-12" edge="1">
          <mxGeometry relative="1" as="geometry" />
        </mxCell>
        <mxCell id="mysU1bcgmzjpTtudAfIv-34" style="edgeStyle=orthogonalEdgeStyle;rounded=0;orthogonalLoop=1;jettySize=auto;html=1;entryX=0;entryY=0.5;entryDx=0;entryDy=0;" parent="1" source="mysU1bcgmzjpTtudAfIv-29" target="mysU1bcgmzjpTtudAfIv-20" edge="1">
          <mxGeometry relative="1" as="geometry" />
        </mxCell>
        <mxCell id="mysU1bcgmzjpTtudAfIv-36" value="" style="group" parent="1" vertex="1" connectable="0">
          <mxGeometry x="770" y="330" width="140" height="150" as="geometry" />
        </mxCell>
        <mxCell id="mysU1bcgmzjpTtudAfIv-37" value="&lt;span style=&quot;font-size: 14px;&quot;&gt;&lt;b&gt;erp_cust_az12&lt;/b&gt;&lt;/span&gt;" style="swimlane;fontStyle=0;childLayout=stackLayout;horizontal=1;startSize=26;fillColor=#f8cecc;horizontalStack=0;resizeParent=1;resizeParentMax=0;resizeLast=0;collapsible=1;marginBottom=0;html=1;rounded=0;strokeColor=#333333;" parent="mysU1bcgmzjpTtudAfIv-36" vertex="1">
          <mxGeometry y="50" width="140" height="60" as="geometry">
            <mxRectangle y="30" width="140" height="30" as="alternateBounds" />
          </mxGeometry>
        </mxCell>
        <mxCell id="mysU1bcgmzjpTtudAfIv-38" value="&lt;span style=&quot;font-size: 16px;&quot;&gt;cid&lt;/span&gt;" style="text;strokeColor=none;fillColor=none;align=left;verticalAlign=top;spacingLeft=4;spacingRight=4;overflow=hidden;rotatable=0;points=[[0,0.5],[1,0.5]];portConstraint=eastwest;whiteSpace=wrap;html=1;" parent="mysU1bcgmzjpTtudAfIv-37" vertex="1">
          <mxGeometry y="26" width="140" height="34" as="geometry" />
        </mxCell>
        <mxCell id="mysU1bcgmzjpTtudAfIv-39" value="&lt;b&gt;Additional Customer Information (Bdate &amp;amp; Gender&lt;/b&gt;" style="text;html=1;align=center;verticalAlign=middle;whiteSpace=wrap;rounded=1;strokeColor=none;dashed=1;dashPattern=1 2;fillColor=none;" parent="mysU1bcgmzjpTtudAfIv-36" vertex="1">
          <mxGeometry width="140" height="50.00000000000001" as="geometry" />
        </mxCell>
        <mxCell id="mysU1bcgmzjpTtudAfIv-40" style="edgeStyle=orthogonalEdgeStyle;rounded=0;orthogonalLoop=1;jettySize=auto;html=1;entryX=0;entryY=0.5;entryDx=0;entryDy=0;fontFamily=Helvetica;fontSize=12;fontColor=default;fontStyle=0;horizontal=1;" parent="1" source="mysU1bcgmzjpTtudAfIv-35" target="mysU1bcgmzjpTtudAfIv-38" edge="1">
          <mxGeometry relative="1" as="geometry" />
        </mxCell>
        <mxCell id="mysU1bcgmzjpTtudAfIv-45" style="edgeStyle=orthogonalEdgeStyle;rounded=0;orthogonalLoop=1;jettySize=auto;html=1;entryX=0;entryY=0.5;entryDx=0;entryDy=0;fontFamily=Helvetica;fontSize=12;fontColor=default;fontStyle=0;horizontal=1;" parent="1" source="mysU1bcgmzjpTtudAfIv-35" target="mysU1bcgmzjpTtudAfIv-43" edge="1">
          <mxGeometry relative="1" as="geometry" />
        </mxCell>
        <mxCell id="mysU1bcgmzjpTtudAfIv-47" value="" style="group" parent="1" vertex="1" connectable="0">
          <mxGeometry x="770" y="730" width="140" height="113.33" as="geometry" />
        </mxCell>
        <mxCell id="mysU1bcgmzjpTtudAfIv-48" value="&lt;span style=&quot;font-size: 14px;&quot;&gt;&lt;b&gt;erp_px_cat_g1v2&lt;/b&gt;&lt;/span&gt;" style="swimlane;fontStyle=0;childLayout=stackLayout;horizontal=1;startSize=26;fillColor=#f8cecc;horizontalStack=0;resizeParent=1;resizeParentMax=0;resizeLast=0;collapsible=1;marginBottom=0;html=1;rounded=0;strokeColor=#333333;" parent="mysU1bcgmzjpTtudAfIv-47" vertex="1">
          <mxGeometry y="30" width="140" height="60" as="geometry">
            <mxRectangle y="30" width="140" height="30" as="alternateBounds" />
          </mxGeometry>
        </mxCell>
        <mxCell id="mysU1bcgmzjpTtudAfIv-49" value="&lt;span style=&quot;font-size: 16px;&quot;&gt;id&lt;/span&gt;" style="text;strokeColor=none;fillColor=none;align=left;verticalAlign=top;spacingLeft=4;spacingRight=4;overflow=hidden;rotatable=0;points=[[0,0.5],[1,0.5]];portConstraint=eastwest;whiteSpace=wrap;html=1;" parent="mysU1bcgmzjpTtudAfIv-48" vertex="1">
          <mxGeometry y="26" width="140" height="34" as="geometry" />
        </mxCell>
        <mxCell id="mysU1bcgmzjpTtudAfIv-50" value="&lt;b&gt;Product Categories&lt;/b&gt;" style="text;html=1;align=center;verticalAlign=middle;whiteSpace=wrap;rounded=1;strokeColor=none;dashed=1;dashPattern=1 2;fillColor=none;" parent="mysU1bcgmzjpTtudAfIv-47" vertex="1">
          <mxGeometry width="140" height="30" as="geometry" />
        </mxCell>
        <mxCell id="mysU1bcgmzjpTtudAfIv-52" style="edgeStyle=orthogonalEdgeStyle;rounded=0;orthogonalLoop=1;jettySize=auto;html=1;exitX=1;exitY=0.5;exitDx=0;exitDy=0;entryX=0;entryY=0.5;entryDx=0;entryDy=0;fontFamily=Helvetica;fontSize=12;fontColor=default;fontStyle=0;horizontal=1;" parent="1" source="mysU1bcgmzjpTtudAfIv-20" target="mysU1bcgmzjpTtudAfIv-49" edge="1">
          <mxGeometry relative="1" as="geometry" />
        </mxCell>
        <mxCell id="mysU1bcgmzjpTtudAfIv-56" value="" style="group" parent="1" vertex="1" connectable="0">
          <mxGeometry x="200" y="260" width="420" height="620" as="geometry" />
        </mxCell>
        <mxCell id="mysU1bcgmzjpTtudAfIv-46" value="" style="rounded=1;whiteSpace=wrap;html=1;strokeColor=#333333;align=center;verticalAlign=middle;fontFamily=Helvetica;fontSize=12;fontColor=default;fontStyle=0;horizontal=1;fillColor=none;dashed=1;dashPattern=1 2;" parent="mysU1bcgmzjpTtudAfIv-56" vertex="1">
          <mxGeometry y="20" width="420" height="600" as="geometry" />
        </mxCell>
        <mxCell id="mysU1bcgmzjpTtudAfIv-53" value="&lt;b&gt;&lt;font style=&quot;font-size: 16px;&quot;&gt;CRM&lt;/font&gt;&lt;/b&gt;" style="text;html=1;align=center;verticalAlign=middle;whiteSpace=wrap;rounded=1;fontFamily=Helvetica;fontSize=12;fontStyle=0;horizontal=1;strokeColor=#82b366;fillColor=#d5e8d4;" parent="mysU1bcgmzjpTtudAfIv-56" vertex="1">
          <mxGeometry x="150" width="120" height="40" as="geometry" />
        </mxCell>
        <mxCell id="KfG9oNacc6HnlRHGDXhW-1" value="" style="shape=rect;fillColor=#b0e3e6;strokeColor=#0e8088;" vertex="1" parent="mysU1bcgmzjpTtudAfIv-56">
          <mxGeometry x="30" y="420" width="140" height="20" as="geometry" />
        </mxCell>
        <mxCell id="KfG9oNacc6HnlRHGDXhW-2" value="&lt;p&gt;&lt;font style=&quot;font-size: 12px;&quot; face=&quot;Georgia&quot;&gt;&lt;b style=&quot;&quot;&gt;SALES&lt;/b&gt;&lt;/font&gt;&lt;/p&gt;" style="text;fontSize=10;verticalAlign=middle;align=center;spacingTop=2;whiteSpace=wrap;html=1;" vertex="1" parent="KfG9oNacc6HnlRHGDXhW-1">
          <mxGeometry x="46.951219512195124" width="46.09756097560975" height="20" as="geometry" />
        </mxCell>
        <mxCell id="KfG9oNacc6HnlRHGDXhW-12" value="" style="shape=rect;fillColor=#d0cee2;strokeColor=#56517e;" vertex="1" parent="mysU1bcgmzjpTtudAfIv-56">
          <mxGeometry x="260" y="270" width="140" height="20" as="geometry" />
        </mxCell>
        <mxCell id="KfG9oNacc6HnlRHGDXhW-13" value="&lt;p&gt;&lt;font face=&quot;Georgia&quot;&gt;&lt;span style=&quot;font-size: 12px;&quot;&gt;&lt;b&gt;CUSTOMER&lt;/b&gt;&lt;/span&gt;&lt;/font&gt;&lt;/p&gt;" style="text;fontSize=10;verticalAlign=middle;align=center;spacingTop=2;whiteSpace=wrap;html=1;" vertex="1" parent="KfG9oNacc6HnlRHGDXhW-12">
          <mxGeometry x="46.951219512195124" width="46.09756097560975" height="20" as="geometry" />
        </mxCell>
        <mxCell id="KfG9oNacc6HnlRHGDXhW-19" value="" style="shape=rect;fillColor=#fad7ac;strokeColor=#b46504;" vertex="1" parent="mysU1bcgmzjpTtudAfIv-56">
          <mxGeometry x="260" y="550" width="140" height="20" as="geometry" />
        </mxCell>
        <mxCell id="KfG9oNacc6HnlRHGDXhW-20" value="&lt;p&gt;&lt;font face=&quot;Georgia&quot;&gt;&lt;span style=&quot;font-size: 12px;&quot;&gt;&lt;b&gt;PRODUCT&lt;/b&gt;&lt;/span&gt;&lt;/font&gt;&lt;/p&gt;" style="text;fontSize=10;verticalAlign=middle;align=center;spacingTop=2;whiteSpace=wrap;html=1;" vertex="1" parent="KfG9oNacc6HnlRHGDXhW-19">
          <mxGeometry x="46.95" width="43.05" height="20" as="geometry" />
        </mxCell>
        <mxCell id="mysU1bcgmzjpTtudAfIv-58" value="" style="group" parent="1" vertex="1" connectable="0">
          <mxGeometry x="770" y="540" width="240" height="340" as="geometry" />
        </mxCell>
        <mxCell id="mysU1bcgmzjpTtudAfIv-42" value="&lt;span style=&quot;font-size: 14px;&quot;&gt;&lt;b&gt;erp_loc_a101&lt;/b&gt;&lt;/span&gt;" style="swimlane;fontStyle=0;childLayout=stackLayout;horizontal=1;startSize=26;fillColor=#f8cecc;horizontalStack=0;resizeParent=1;resizeParentMax=0;resizeLast=0;collapsible=1;marginBottom=0;html=1;rounded=0;strokeColor=#333333;" parent="mysU1bcgmzjpTtudAfIv-58" vertex="1">
          <mxGeometry y="30" width="140" height="60" as="geometry">
            <mxRectangle y="30" width="140" height="30" as="alternateBounds" />
          </mxGeometry>
        </mxCell>
        <mxCell id="mysU1bcgmzjpTtudAfIv-43" value="&lt;span style=&quot;font-size: 16px;&quot;&gt;cid&lt;/span&gt;" style="text;strokeColor=none;fillColor=none;align=left;verticalAlign=top;spacingLeft=4;spacingRight=4;overflow=hidden;rotatable=0;points=[[0,0.5],[1,0.5]];portConstraint=eastwest;whiteSpace=wrap;html=1;" parent="mysU1bcgmzjpTtudAfIv-42" vertex="1">
          <mxGeometry y="26" width="140" height="34" as="geometry" />
        </mxCell>
        <mxCell id="mysU1bcgmzjpTtudAfIv-44" value="&lt;b&gt;Customer Location&lt;/b&gt;" style="text;html=1;align=center;verticalAlign=middle;whiteSpace=wrap;rounded=1;strokeColor=none;dashed=1;dashPattern=1 2;fillColor=none;" parent="mysU1bcgmzjpTtudAfIv-58" vertex="1">
          <mxGeometry width="140" height="30" as="geometry" />
        </mxCell>
        <mxCell id="mysU1bcgmzjpTtudAfIv-67" value="" style="group" parent="mysU1bcgmzjpTtudAfIv-58" vertex="1" connectable="0">
          <mxGeometry x="-100" y="-280" width="340" height="620" as="geometry" />
        </mxCell>
        <mxCell id="mysU1bcgmzjpTtudAfIv-62" value="" style="rounded=1;whiteSpace=wrap;html=1;strokeColor=#333333;align=center;verticalAlign=middle;fontFamily=Helvetica;fontSize=12;fontColor=default;fontStyle=0;horizontal=1;fillColor=none;dashed=1;dashPattern=1 2;" parent="mysU1bcgmzjpTtudAfIv-67" vertex="1">
          <mxGeometry y="20" width="340" height="600" as="geometry" />
        </mxCell>
        <mxCell id="mysU1bcgmzjpTtudAfIv-66" value="&lt;span style=&quot;font-size: 16px;&quot;&gt;&lt;b&gt;ERP&lt;/b&gt;&lt;/span&gt;" style="text;html=1;align=center;verticalAlign=middle;whiteSpace=wrap;rounded=1;fontFamily=Helvetica;fontSize=12;fontStyle=0;horizontal=1;strokeColor=#b85450;fillColor=#f8cecc;" parent="mysU1bcgmzjpTtudAfIv-67" vertex="1">
          <mxGeometry x="110" width="120" height="40" as="geometry" />
        </mxCell>
        <mxCell id="KfG9oNacc6HnlRHGDXhW-14" value="" style="shape=rect;fillColor=#d0cee2;strokeColor=#56517e;" vertex="1" parent="mysU1bcgmzjpTtudAfIv-67">
          <mxGeometry x="100" y="180" width="140" height="20" as="geometry" />
        </mxCell>
        <mxCell id="KfG9oNacc6HnlRHGDXhW-15" value="&lt;p&gt;&lt;font face=&quot;Georgia&quot;&gt;&lt;span style=&quot;font-size: 12px;&quot;&gt;&lt;b&gt;CUSTOMER&lt;/b&gt;&lt;/span&gt;&lt;/font&gt;&lt;/p&gt;" style="text;fontSize=10;verticalAlign=middle;align=center;spacingTop=2;whiteSpace=wrap;html=1;" vertex="1" parent="KfG9oNacc6HnlRHGDXhW-14">
          <mxGeometry x="46.951219512195124" width="46.09756097560975" height="20" as="geometry" />
        </mxCell>
        <mxCell id="KfG9oNacc6HnlRHGDXhW-17" value="" style="shape=rect;fillColor=#d0cee2;strokeColor=#56517e;" vertex="1" parent="mysU1bcgmzjpTtudAfIv-67">
          <mxGeometry x="100" y="370" width="140" height="20" as="geometry" />
        </mxCell>
        <mxCell id="KfG9oNacc6HnlRHGDXhW-18" value="&lt;p&gt;&lt;font face=&quot;Georgia&quot;&gt;&lt;span style=&quot;font-size: 12px;&quot;&gt;&lt;b&gt;CUSTOMER&lt;/b&gt;&lt;/span&gt;&lt;/font&gt;&lt;/p&gt;" style="text;fontSize=10;verticalAlign=middle;align=center;spacingTop=2;whiteSpace=wrap;html=1;" vertex="1" parent="KfG9oNacc6HnlRHGDXhW-17">
          <mxGeometry x="46.951219512195124" width="46.09756097560975" height="20" as="geometry" />
        </mxCell>
        <mxCell id="KfG9oNacc6HnlRHGDXhW-21" value="" style="shape=rect;fillColor=#fad7ac;strokeColor=#b46504;" vertex="1" parent="mysU1bcgmzjpTtudAfIv-67">
          <mxGeometry x="100" y="560" width="140" height="20" as="geometry" />
        </mxCell>
        <mxCell id="KfG9oNacc6HnlRHGDXhW-22" value="&lt;p&gt;&lt;font face=&quot;Georgia&quot;&gt;&lt;span style=&quot;font-size: 12px;&quot;&gt;&lt;b&gt;PRODUCT&lt;/b&gt;&lt;/span&gt;&lt;/font&gt;&lt;/p&gt;" style="text;fontSize=10;verticalAlign=middle;align=center;spacingTop=2;whiteSpace=wrap;html=1;" vertex="1" parent="KfG9oNacc6HnlRHGDXhW-21">
          <mxGeometry x="46.95" width="43.05" height="20" as="geometry" />
        </mxCell>
      </root>
    </mxGraphModel>
  </diagram>
</mxfile>
